<?xml version="1.0" encoding="UTF-8"?>
<svg width="152px" height="41px" viewBox="0 0 152 41" version="1.1" xmlns="http://www.w3.org/2000/svg" xmlns:xlink="http://www.w3.org/1999/xlink">
    <!-- Generator: Sketch 52.1 (67048) - http://www.bohemiancoding.com/sketch -->
    <title>tabV</title>
    <desc>Created with Sketch.</desc>
    <g id="Page-1" stroke="none" stroke-width="1" fill="none" fill-rule="evenodd">
        <g id="tabV" fill-rule="nonzero">
            <polygon id="Path-2" fill="#FFFFFF" points="2.57781692 38.4829531 40.3977661 2.2889993 149.431204 2.2889993 149.431204 38.4829531"></polygon>
            <path d="M75.249,2.257 C95.58,1.877 115.959,2.823 135.707,2.843 C140.637,2.845 145.551,2.847 150.375,2.849 C149.913,2.387 149.462,1.935 149.01,1.484 C149.03,14.447 149.047,27.162 149.067,39.484 C149.52,39.031 149.948,38.601 150.377,38.173 C104.803,38.277 61.226,38.466 19.458,38.156 C15.29,38.125 8.434,38.055 4.159,38.096 C-4.719,38.184 4.256,39.699 8.504,39.911 C35.173,41.262 64.322,41.012 87.9,40.57 C108.781,40.179 129.618,40.087 150.378,40.127 L151.022,40.129 L151.026,39.481 C151.089,26.783 151.151,14.11 151.213,1.481 L151.217,0.654 L150.38,0.648 C113.373,0.393 76.653,0.031 40.38,0.501 L39.971,0.51 L39.7,0.775 C28.836,11.365 18.135,22.002 7.643,32.734 C5.608,34.816 -3.02,43.614 3.077,38.525 C9.317,33.316 20.706,21.994 23.218,19.536 C29.022,13.858 34.999,8.125 41.117,2.266 C40.876,2.362 40.626,2.462 40.376,2.562 C51.771,2.515 63.459,2.478 75.249,2.257 Z" id="Path" fill="#B8BBBD"></path>
        </g>
    </g>
</svg>