<?xml version="1.0" encoding="utf-8"?>
<!-- Generator: Adobe Illustrator 16.0.0, SVG Export Plug-In . SVG Version: 6.00 Build 0)  -->
<!DOCTYPE svg PUBLIC "-//W3C//DTD SVG 1.1//EN" "http://www.w3.org/Graphics/SVG/1.1/DTD/svg11.dtd">
<svg version="1.1" id="Layer_1" xmlns="http://www.w3.org/2000/svg" xmlns:xlink="http://www.w3.org/1999/xlink" x="0px" y="0px"
	 width="609px" height="427px" viewBox="0 0 609 427" enable-background="new 0 0 609 427" xml:space="preserve">
<g>
	<g>
		<g>
			<path fill="#959A9D" d="M506.202,0.792c-118.468,0.38-237.21-0.566-352.284-0.586c-51.235,0-102.187,0-151.975,0.001H0.586v1.357
				c0.055,144.49,0.107,285.629,0.161,423.685v1.196h1.195c169.352,0.045,333.996,0.088,494.081,0.13
				c24.285,0.016,64.24,0.042,89.143,0.058c51.731-0.086-0.561-1.601-25.313-1.813c-155.4-1.352-325.249-1.101-462.638-0.659
				c-31.797,0.082-63.576,0.165-95.273,0.248l0.843,0.842C2.5,283.491,2.558,142.154,2.703,1.564l-0.76,0.759
				c203.414,0.21,405.409,0.601,605.264,0.388l-1.146-1.146c0.131,122.829,0.489,244.842,1.258,365.887
				c0.108,16.961,0.544,88.711,1.054,42.538c0.521-47.271,0.156-140.818,0.104-161.295c-0.091-79.919-0.185-162.561-0.28-247.13
				l-0.001-0.99l-0.987,0.002C574.073,0.647,540.211,0.72,506.202,0.792z M548.615,1.18c-2.202-0.19,14.225-0.589,17.015-0.349
				C567.83,1.02,551.405,1.42,548.615,1.18z"/>
		</g>
	</g>
</g>
</svg>
