<?xml version="1.0" encoding="utf-8"?>
<!-- Generator: Adobe Illustrator 16.0.0, SVG Export Plug-In . SVG Version: 6.00 Build 0)  -->
<!DOCTYPE svg PUBLIC "-//W3C//DTD SVG 1.1//EN" "http://www.w3.org/Graphics/SVG/1.1/DTD/svg11.dtd">
<svg version="1.1" id="Layer_1" xmlns="http://www.w3.org/2000/svg" xmlns:xlink="http://www.w3.org/1999/xlink" x="0px" y="0px"
	 width="25.5px" height="25.375px" viewBox="0 0 25.5 25.375" enable-background="new 0 0 25.5 25.375" xml:space="preserve">
<path fill="#82888C" d="M8.813,15.775L12.751,9.6l3.936,6.176H8.813z M10.746,16.621c-0.224,0.035-1.248,0.278-1.765-0.069
	c-0.505-0.34,0.28-0.63,0.465-0.702c2.383-0.922,4.8-0.959,7.241-0.818l-0.628,1.145c-1.184-2.117-2.232-4.348-3.721-6.313l0.826,0
	c-0.272,0.514-0.521,1.045-0.738,1.597c-0.56,1.426-1.418,3.083-3.092,4.033c-0.266,0.151-1.425,0.091-1.169-0.417
	c0.124-0.245,0.396-0.589,0.557-0.802c1.189-1.582,2.259-3.314,3.342-5.113l0.648-1.077l0.727,1.077
	c1.018,1.51,2.079,3.053,3.085,4.673c0.3,0.481,0.499,1.038,0.71,1.592l0.46,1.205l-1.007-0.208
	c-0.706-0.146-1.419-0.272-2.131-0.134C13.253,16.545,11.97,16.434,10.746,16.621z"/>
</svg>
