<?xml version="1.0" encoding="utf-8"?>
<!-- Generator: Adobe Illustrator 16.0.0, SVG Export Plug-In . SVG Version: 6.00 Build 0)  -->
<!DOCTYPE svg PUBLIC "-//W3C//DTD SVG 1.1//EN" "http://www.w3.org/Graphics/SVG/1.1/DTD/svg11.dtd">
<svg version="1.1" id="Layer_1" xmlns="http://www.w3.org/2000/svg" xmlns:xlink="http://www.w3.org/1999/xlink" x="0px" y="0px"
	 width="25.5px" height="147.25px" viewBox="0 0 25.5 147.25" enable-background="new 0 0 25.5 147.25" xml:space="preserve">
<g>
	<rect x="8" y="3" fill="#83888C" width="10" height="141"/>
	<g>
		<g>
			<path fill-rule="evenodd" clip-rule="evenodd" fill="#83888C" d="M18.779,67.001c-0.507-17.385,0.755-34.812,0.782-51.699
				C19.564,11.164,19.567,7.038,19.57,3l0.001-1.822L17.75,1.18c-3.406,0.003-6.745,0.007-10,0.01L5.938,1.192L5.94,3
				c0.077,47.021,0.535,91.959,0.041,134.684c-0.02,1.721-0.046,3.978-0.073,6.316l-0.021,1.824l1.862,0.018
				c2.395,0.022,4.875,0.033,6.766,0.004c7.592-0.116-0.083-2.135-3.715-2.42c-1-0.074-2.004-0.147-3.051-0.225
				c0.263,0.263,0.525,0.525,0.799,0.799c1.546-21.931,1.216-45.564,0.654-64.842C8.46,53.667,8.525,28.256,8.762,3L7.75,4.012
				c3.338,0.034,6.674,0.068,10,0.102L16.637,3c-0.482,44.789-1.244,89.079,1.262,132.518c0.145,2.489,0.725,13.019,1.405,6.243
				c0.695-6.937,0.208-20.666,0.138-23.67C19.066,101.67,19.288,84.467,18.779,67.001z M18.263,73.225
				c0.253-0.323,0.786,2.087,0.465,2.497C18.477,76.045,17.942,73.634,18.263,73.225z"/>
		</g>
	</g>
</g>
</svg>
