<?xml version="1.0" encoding="utf-8"?>
<!-- Generator: Adobe Illustrator 16.0.0, SVG Export Plug-In . SVG Version: 6.00 Build 0)  -->
<!DOCTYPE svg PUBLIC "-//W3C//DTD SVG 1.1//EN" "http://www.w3.org/Graphics/SVG/1.1/DTD/svg11.dtd">
<svg version="1.1" id="Layer_1" xmlns="http://www.w3.org/2000/svg" xmlns:xlink="http://www.w3.org/1999/xlink" x="0px" y="0px"
	 width="25.5px" height="409.625px" viewBox="0 0 25.5 409.625" enable-background="new 0 0 25.5 409.625" xml:space="preserve">
<g>
	<g>
		<g>
			<path fill="#959A9D" d="M22.766,191.286c-0.254-48.933,0.377-97.981,0.391-145.512C23.157,30.961,23.158,16.208,23.159,2V1.091
				H22.25c-6.521,0.001-12.815,0.003-19,0.004H2.345V2c0.039,132.346,0.268,258.832,0.021,379.086
				c-0.013,7.335-0.032,18.13-0.047,26.924l-0.001,0.932h0.933c3.918-0.004,7.132-0.006,9.896-0.008
				c20.992-0.058,0.517-1.033-9.896-1.201c0.097,0.097,0.194,0.192,0.279,0.277c0.003-0.193,0.005-0.379,0.008-0.56
				c0.9-64.188,0.733-134.345,0.439-191.095C3.605,144.61,3.637,73.086,3.756,2L3.25,2.506c6.342,0.011,12.682,0.022,19,0.034
				L21.71,2c-0.239,129.18-0.669,256.914,0.614,382.137c0.072,7.006,0.361,36.643,0.701,17.57
				c0.349-19.525,0.104-58.165,0.07-66.623C22.988,288.866,22.878,240.448,22.766,191.286z M22.507,208.805
				c0.126-0.91,0.394,5.875,0.231,7.027C22.613,216.742,22.346,209.957,22.507,208.805z"/>
		</g>
	</g>
</g>
</svg>
