<?xml version="1.0" encoding="UTF-8"?>
<svg width="154px" height="42px" viewBox="0 0 154 42" version="1.1" xmlns="http://www.w3.org/2000/svg" xmlns:xlink="http://www.w3.org/1999/xlink">
    <!-- Generator: Sketch 52.1 (67048) - http://www.bohemiancoding.com/sketch -->
    <title>tabH</title>
    <desc>Created with Sketch.</desc>
    <g id="Page-1" stroke="none" stroke-width="1" fill="none" fill-rule="evenodd">
        <g id="tabH" fill-rule="nonzero">
            <polygon id="Path-2" fill="#FFFFFF" points="2.15280191 2.68919837 112.055545 2.68919837 153.495177 40.2874629 2.15280191 40.2874629"></polygon>
            <path d="M77.063,1.023 C56.73,1.403 36.353,0.457 16.604,0.437 C11.674,0.434 6.76,0.432 1.936,0.43 L0.569,0.43 L0.571,1.795 C0.59,14.758 0.608,27.473 0.626,39.795 L0.628,41.108 L1.936,41.106 C47.51,41.002 91.087,40.813 132.855,41.122 C137.023,41.153 143.878,41.222 148.154,41.181 C157.032,41.093 148.056,39.578 143.808,39.366 C117.14,38.015 87.991,38.265 64.412,38.706 C43.531,39.098 22.696,39.189 1.936,39.148 L2.583,39.795 C2.645,27.097 2.707,14.424 2.769,1.795 L1.936,2.628 C38.943,2.883 75.662,3.245 111.936,2.775 L111.262,2.505 C122.395,12.812 133.567,22.954 144.823,32.881 C147.008,34.809 156.233,42.973 150.841,37.145 C145.32,31.18 133.429,20.388 130.844,18.005 C124.876,12.499 118.845,6.823 112.679,1.013 L112.365,0.715 L111.939,0.716 C100.539,0.765 88.852,0.803 77.063,1.023 Z" id="Path" fill="#B8BBBD"></path>
        </g>
    </g>
</svg>