<?xml version="1.0" encoding="utf-8"?>
<!-- Generator: Adobe Illustrator 16.0.0, SVG Export Plug-In . SVG Version: 6.00 Build 0)  -->
<!DOCTYPE svg PUBLIC "-//W3C//DTD SVG 1.1//EN" "http://www.w3.org/Graphics/SVG/1.1/DTD/svg11.dtd">
<svg version="1.1" id="Layer_1" xmlns="http://www.w3.org/2000/svg" xmlns:xlink="http://www.w3.org/1999/xlink" x="0px" y="0px"
	 width="25.5px" height="5px" viewBox="0 0 25.5 5" enable-background="new 0 0 25.5 5" xml:space="preserve">
<g>
	<g>
		<g>
			<path fill="#959A9D" d="M7.604,3.016c1.209-0.253,2.42,0.377,3.595,0.391c3.811,0.046,7.468-0.309,10.917-0.021
				c0.247,0.021,0.655,0.066,0.909,0.039c0.529-0.058-0.004-1.067-0.258-1.21c-1.584-0.9-3.318-0.733-4.721-0.439
				C12.894,2.853,7.787,0.522,2.84,2.574C2.667,2.646,1.935,2.937,2.406,3.275c0.482,0.349,1.437,0.104,1.646,0.07
				C5.193,3.158,6.39,3.27,7.604,3.016z M7.171,2.757C7.193,2.883,7.026,3.15,6.998,2.989C6.976,2.863,7.143,2.596,7.171,2.757z"/>
		</g>
	</g>
</g>
</svg>
