<?xml version="1.0" encoding="utf-8"?>
<!-- Generator: Adobe Illustrator 16.0.0, SVG Export Plug-In . SVG Version: 6.00 Build 0)  -->
<!DOCTYPE svg PUBLIC "-//W3C//DTD SVG 1.1//EN" "http://www.w3.org/Graphics/SVG/1.1/DTD/svg11.dtd">
<svg version="1.1" id="Layer_1" xmlns="http://www.w3.org/2000/svg" xmlns:xlink="http://www.w3.org/1999/xlink" x="0px" y="0px"
	 width="153.125px" height="152.896px" viewBox="0 0 153.125 152.896" enable-background="new 0 0 153.125 152.896"
	 xml:space="preserve">
<g>
	<g>
		<g>
			<path fill="#959A9D" d="M148.521,0.645C113.98,1.025,79.359,0.079,45.809,0.059c-14.976,0-29.868,0-44.31,0.001H0.141
				l0.001,1.356c0.065,51.546,0.128,101.594,0.189,150l0.001,1.169l1.167-0.001c40.502-0.03,79.485-0.008,117.584,0.158
				c7.08,0.032,18.729,0.099,25.989,0.058c15.084-0.087-0.163-1.602-7.379-1.814c-45.31-1.352-94.831-1.101-134.887-0.66L1.5,150.34
				l1.076,1.076c-0.542-50.206-0.494-100.255-0.317-150L1.5,2.175c50.342,0.179,100.389,0.487,150,0.446l-1.204-1.205
				c0.037,44.768,0.358,89.177,1.315,133.148c0.107,4.944,0.543,25.865,1.054,12.401c0.521-13.781,0.155-41.057,0.104-47.026
				c-0.273-31.681-0.125-64.828-0.465-98.524l-0.009-0.812l-0.796,0.01C150.525,0.623,149.523,0.634,148.521,0.645z M151.884,10.804
				c0.19-0.643,0.591,4.146,0.351,4.96C152.044,16.406,151.645,11.617,151.884,10.804z"/>
		</g>
	</g>
</g>
<g>
	<g>
		<g>
			<path fill="#959A9D" d="M39.443,40.056c8.814,8.456,17.023,17.557,25.401,25.954c27.187,27.253,53.554,53.12,77.988,77.958
				c1.755,1.785,4.636,4.729,6.471,6.525c3.813,3.73,0.715-0.795-0.99-2.701c-10.689-11.963-23.188-24.226-33.41-34.032
				C77.334,77.72,42.511,39.6,5.723,5.713C4.435,4.528-1-0.497,2.125,3.109c3.2,3.69,10.191,10.337,11.708,11.806
				C22.122,22.938,30.588,31.561,39.443,40.056z M36.534,36.782c0.071,0.25-1.314-0.759-1.405-1.076
				C35.058,35.457,36.444,36.466,36.534,36.782z"/>
		</g>
	</g>
</g>
<g>
	<g>
		<g>
			<path fill="#959A9D" d="M112.954,39.329c-8.456,8.814-17.558,17.023-25.955,25.401c-27.252,27.187-53.12,53.555-77.958,77.987
				c-1.785,1.756-4.729,4.637-6.525,6.472c-3.73,3.812,0.796,0.714,2.7-0.99c11.964-10.69,24.226-23.189,34.033-33.411
				C75.29,77.22,113.41,42.397,147.297,5.608c1.186-1.288,6.21-6.724,2.604-3.599c-3.69,3.2-10.336,10.191-11.805,11.708
				C130.072,22.007,121.449,30.474,112.954,39.329z M116.229,36.419c-0.25,0.071,0.758-1.313,1.076-1.404
				C117.553,34.943,116.544,36.33,116.229,36.419z"/>
		</g>
	</g>
</g>
</svg>
